<?xml version="1.0" encoding="UTF-8"?>
<mxfile host="app.diagrams.net">
  <diagram name="LifeOS Architecture" id="arch1">
    <mxGraphModel dx="1200" dy="800" grid="1" gridSize="10" guides="1" tooltips="1" connect="1" arrows="1" fold="1" page="1" pageScale="1" pageWidth="1169" pageHeight="827">
      <root>
        <mxCell id="0"/>
        <mxCell id="1" parent="0"/>

        <!-- External Client -->
        <mxCell id="client" value="Frontend App" style="shape=ellipse;fillColor=#d5e8d4;strokeColor=#82b366;" vertex="1" parent="1">
          <mxGeometry x="20" y="200" width="100" height="60" as="geometry"/>
        </mxCell>

        <!-- Express Server -->
        <mxCell id="express" value="Express Server" style="shape=rectangle;rounded=1;fillColor=#dae8fc;strokeColor=#6c8ebf;" vertex="1" parent="1">
          <mxGeometry x="180" y="150" width="140" height="80" as="geometry"/>
        </mxCell>

        <!-- Middleware -->
        <mxCell id="auth" value="Auth Middleware
(JWT)" style="shape=rectangle;rounded=1;fillColor=#fff2cc;strokeColor=#d6b656;" vertex="1" parent="1">
          <mxGeometry x="180" y="250" width="140" height="60" as="geometry"/>
        </mxCell>
        <mxCell id="validation" value="Validation Middleware
(Zod)" style="shape=rectangle;rounded=1;fillColor=#fff2cc;strokeColor=#d6b656;" vertex="1" parent="1">
          <mxGeometry x="180" y="330" width="140" height="60" as="geometry"/>
        </mxCell>

        <!-- Routers -->
        <mxCell id="routes" value="Routes / Controllers" style="shape=rectangle;rounded=1;fillColor=#f8cecc;strokeColor=#b85450;" vertex="1" parent="1">
          <mxGeometry x="360" y="200" width="180" height="200" as="geometry"/>
        </mxCell>

        <!-- External Services -->
        <mxCell id="macroService" value="Macro API Service
(External)" style="shape=ellipse;fillColor=#e1d5e7;strokeColor=#9673a6;" vertex="1" parent="1">
          <mxGeometry x="580" y="120" width="140" height="60" as="geometry"/>
        </mxCell>
        <mxCell id="aiService" value="AI Summary Service
(External)" style="shape=ellipse;fillColor=#e1d5e7;strokeColor=#9673a6;" vertex="1" parent="1">
          <mxGeometry x="580" y="240" width="140" height="60" as="geometry"/>
        </mxCell>

        <!-- Mongoose Models Layer -->
        <mxCell id="models" value="Mongoose Models" style="shape=rectangle;rounded=1;fillColor=#f5f5f5;strokeColor=#999999;" vertex="1" parent="1">
          <mxGeometry x="380" y="440" width="200" height="140" as="geometry"/>
        </mxCell>

        <!-- MongoDB Database -->
        <mxCell id="mongodb" value="MongoDB Atlas" style="shape=cylinder;fillColor=#d0e0e3;strokeColor=#537791;" vertex="1" parent="1">
          <mxGeometry x="620" y="450" width="140" height="100" as="geometry"/>
        </mxCell>

        <!-- Connections -->
        <!-- Client to Express -->
        <mxCell id="e1" edge="1" parent="1" source="client" target="express">
          <mxGeometry relative="1" as="geometry"/>
        </mxCell>
        <!-- Express to Auth -->
        <mxCell id="e2" edge="1" parent="1" source="express" target="auth">
          <mxGeometry relative="1" as="geometry"/>
        </mxCell>
        <!-- Auth to Validation -->
        <mxCell id="e3" edge="1" parent="1" source="auth" target="validation">
          <mxGeometry relative="1" as="geometry"/>
        </mxCell>
        <!-- Validation to Routes -->
        <mxCell id="e4" edge="1" parent="1" source="validation" target="routes">
          <mxGeometry relative="1" as="geometry"/>
        </mxCell>
        <!-- Routes to External Services -->
        <mxCell id="e5" edge="1" parent="1" source="routes" target="macroService">
          <mxGeometry relative="1" as="geometry"/>
        </mxCell>
        <mxCell id="e6" edge="1" parent="1" source="routes" target="aiService">
          <mxGeometry relative="1" as="geometry"/>
        </mxCell>
        <!-- Routes to Models -->
        <mxCell id="e7" edge="1" parent="1" source="routes" target="models">
          <mxGeometry relative="1" as="geometry"/>
        </mxCell>
        <!-- Models to MongoDB -->
        <mxCell id="e8" edge="1" parent="1" source="models" target="mongodb">
          <mxGeometry relative="1" as="geometry"/>
        </mxCell>
      </root>
    </mxGraphModel>
  </diagram>
</mxfile>
